<?xml version="1.0" encoding="UTF-8"?>
<!DOCTYPE svg PUBLIC "-//W3C//DTD SVG 1.1//EN" "http://www.w3.org/Graphics/SVG/1.1/DTD/svg11.dtd">
<!-- Creator: CorelDRAW 2020 (64 Bit) -->
<svg xmlns="http://www.w3.org/2000/svg" xml:space="preserve" width="49.7276mm" height="49.6852mm" version="1.1" style="shape-rendering:geometricPrecision; text-rendering:geometricPrecision; image-rendering:optimizeQuality; fill-rule:evenodd; clip-rule:evenodd"
viewBox="0 0 4761.99 4757.93"
 xmlns:xlink="http://www.w3.org/1999/xlink"
 xmlns:xodm="http://www.corel.com/coreldraw/odm/2003">
 <defs>
  <style type="text/css">
   <![CDATA[
    .fil0 {fill:white}
   ]]>
  </style>
 </defs>
 <g id="Camada_x0020_1">
  <metadata id="CorelCorpID_0Corel-Layer"/>
  <path class="fil0" d="M2151.25 3341.74l459.46 0 0 459.47 -459.46 0 0 -459.47zm0 -2380.98l459.46 0 0 1879.72 -459.46 0 0 -1879.72zm-2151.25 1420.23c0,346.44 96.9,739.26 215.7,974.79 36.95,73.26 59.62,133.36 96.13,196.28 34.14,58.88 70.62,124.28 111.48,180.91 183.95,255.15 355.07,413.96 596.92,593.57 617.67,458.71 1616.66,579.26 2321.78,226.83 436.73,-218.29 512.86,-270.61 850.78,-632.1 234.13,-250.44 412.63,-645 498.35,-984.5 369.9,-1464.98 -754.46,-2936.77 -2310.16,-2936.77 -340.74,0 -743.65,99.17 -974.94,215.56 -133.39,67.12 -261.53,124.45 -377.05,207.75 -499.21,359.96 -810.73,811.61 -962.49,1418.5 -38.11,152.42 -66.51,356.18 -66.51,539.18z"/>
 </g>
</svg>
