<?xml version="1.0" encoding="UTF-8"?>
<!DOCTYPE svg PUBLIC "-//W3C//DTD SVG 1.1//EN" "http://www.w3.org/Graphics/SVG/1.1/DTD/svg11.dtd">
<!-- Creator: CorelDRAW 2020 (64 Bit) -->
<svg xmlns="http://www.w3.org/2000/svg" xml:space="preserve" width="43.0272mm" height="36.2332mm" version="1.1" style="shape-rendering:geometricPrecision; text-rendering:geometricPrecision; image-rendering:optimizeQuality; fill-rule:evenodd; clip-rule:evenodd"
viewBox="0 0 4801.27 4043.15"
 xmlns:xlink="http://www.w3.org/1999/xlink"
 xmlns:xodm="http://www.corel.com/coreldraw/odm/2003">
 <defs>
  <style type="text/css">
   <![CDATA[
    .fil0 {fill:white}
   ]]>
  </style>
 </defs>
 <g id="Camada_x0020_1">
  <metadata id="CorelCorpID_0Corel-Layer"/>
  <g id="_2114217828096">
   <polygon class="fil0" points="-0,4043.15 4801.27,4043.15 4801.27,1347.7 -0,1347.7 "/>
   <path class="fil0" d="M-0 1179.25l4801.27 0 0 -800.2 -421.18 0c-150.47,0 27.24,315.87 -147.38,315.87l-589.64 0c-174.63,0 3.08,-315.87 -147.4,-315.87l-2190.07 0c-150.47,0 27.24,315.87 -147.4,315.87l-589.64 0c-174.62,0 3.09,-315.87 -147.38,-315.87l-421.18 0 0 800.2z"/>
   <polygon class="fil0" points="652.82,526.46 1073.97,526.46 1073.97,0 652.82,0 "/>
   <polygon class="fil0" points="3727.3,526.46 4148.45,526.46 4148.45,0 3727.3,0 "/>
  </g>
 </g>
</svg>
