<?xml version="1.0" encoding="UTF-8"?>
<!DOCTYPE svg PUBLIC "-//W3C//DTD SVG 1.1//EN" "http://www.w3.org/Graphics/SVG/1.1/DTD/svg11.dtd">
<!-- Creator: CorelDRAW 2020 (64 Bit) -->
<svg xmlns="http://www.w3.org/2000/svg" xml:space="preserve" width="34.5014mm" height="35.1195mm" version="1.1" style="shape-rendering:geometricPrecision; text-rendering:geometricPrecision; image-rendering:optimizeQuality; fill-rule:evenodd; clip-rule:evenodd"
viewBox="0 0 4136.6 4210.7"
 xmlns:xlink="http://www.w3.org/1999/xlink"
 xmlns:xodm="http://www.corel.com/coreldraw/odm/2003">
 <defs>
  <style type="text/css">
   <![CDATA[
    .fil0 {fill:#7E8080}
   ]]>
  </style>
 </defs>
 <g id="Camada_x0020_1">
  <metadata id="CorelCorpID_0Corel-Layer"/>
  <g id="_1896549527424">
   <path class="fil0" d="M-0 2933.11l0 907.26c0,180.73 172.46,370.34 351.81,370.34l3443.93 0c93.21,0 208.81,-92.75 251.83,-155.53 125.72,-183.55 81.46,-744.37 81.46,-1029.49 0,-408.06 -341.49,-464.11 -524.3,-283.58 -209.09,206.46 28.98,876.07 -160.78,876.07 -397.23,0 -2631.03,28.55 -2832.93,-18.5 -54.56,-234.19 55.34,-676.74 -80.65,-845.13 -159.98,-198.03 -530.37,-108.35 -530.37,178.56z"/>
   <path class="fil0" d="M1092.44 1266.67c-94.44,0 -156.29,38.8 -208.86,87.42 -265.88,245.85 35.14,470.26 157.94,593.04l648.05 666.58c361.19,361.16 387.85,362.04 759.17,-9.26l620.27 -638.8c113.19,-113.22 413.94,-373.83 184.27,-600.87 -293.59,-290.25 -574.94,157.41 -767.57,334.03 -174.53,160.04 -134.19,-207.35 -134.19,-376.59 0,-265.38 -0.02,-530.78 0,-796.16 0,-154.14 53.29,-517.8 -280.23,-525.91 -318.98,-7.75 -312.51,299.17 -312.29,470.34l-1.04 1203.89c-47.92,281.94 -409.09,-407.71 -665.52,-407.71z"/>
  </g>
 </g>
</svg>
