<?xml version="1.0" encoding="UTF-8"?>
<!DOCTYPE svg PUBLIC "-//W3C//DTD SVG 1.1//EN" "http://www.w3.org/Graphics/SVG/1.1/DTD/svg11.dtd">
<!-- Creator: CorelDRAW 2020 (64 Bit) -->
<svg xmlns="http://www.w3.org/2000/svg" xml:space="preserve" width="18.6723mm" height="19.2191mm" version="1.1" style="shape-rendering:geometricPrecision; text-rendering:geometricPrecision; image-rendering:optimizeQuality; fill-rule:evenodd; clip-rule:evenodd"
viewBox="0 0 1924.27 1980.62"
 xmlns:xlink="http://www.w3.org/1999/xlink"
 xmlns:xodm="http://www.corel.com/coreldraw/odm/2003">
 <defs>
  <style type="text/css">
   <![CDATA[
    .fil0 {fill:#8D8E8E}
   ]]>
  </style>
 </defs>
 <g id="Camada_x0020_1">
  <metadata id="CorelCorpID_0Corel-Layer"/>
  <path class="fil0" d="M1924.27 1875.92c0,-81.21 -28.11,-84.82 -89.44,-146.14 -131.25,-131.26 -666.54,-692.12 -730.73,-735.1 27.75,-41.46 544.32,-548.68 626.04,-630.4 84.06,-84.07 194.13,-157.56 194.13,-259.58 0,-66.97 -61.07,-104.69 -139.61,-104.69 -49.2,0 -102.99,72.46 -133.05,102.52l-732.86 732.99c-101.61,115.39 -102.58,89.11 -102.58,185.34 0,45.73 546.72,564.23 648.02,669.49 23.92,24.85 30.82,40.27 56.41,65.74 47.8,47.55 202.77,224.55 264.07,224.55 51.27,0 65.83,-0.59 98.74,-32.14 20.91,-20.05 40.87,-36.2 40.87,-72.56z"/>
  <path class="fil0" d="M1112.82 1858.47c0,-62.29 -143.95,-183.21 -189.78,-229.04 -83.17,-83.17 -611.06,-601.57 -639.13,-643.48 67.34,-45.09 394.73,-405.55 478.6,-472.47 66.28,-52.87 201.72,-194.98 269.6,-262.64 36.3,-36.17 80.7,-69.14 80.7,-137.42 0,-64.1 -53.41,-113.42 -139.6,-113.42 -52.32,0 -215.56,185.01 -259.58,229.03l-610.76 610.76c-40.16,40.16 -99.24,74.64 -102.78,148.43 -3.98,82.86 132.52,191.05 211.84,270.38l492.98 492.97c42.85,42.85 79.3,79.31 122.15,122.16 66.32,66.32 88.25,106.88 172.33,106.88 58.3,0 113.42,-62.05 113.42,-122.15z"/>
 </g>
</svg>
