<?xml version="1.0" encoding="UTF-8"?>
<!DOCTYPE svg PUBLIC "-//W3C//DTD SVG 1.1//EN" "http://www.w3.org/Graphics/SVG/1.1/DTD/svg11.dtd">
<!-- Creator: CorelDRAW 2020 (64 Bit) -->
<svg xmlns="http://www.w3.org/2000/svg" xml:space="preserve" width="18.6723mm" height="19.2191mm" version="1.1" style="shape-rendering:geometricPrecision; text-rendering:geometricPrecision; image-rendering:optimizeQuality; fill-rule:evenodd; clip-rule:evenodd"
viewBox="0 0 1924.29 1980.64"
 xmlns:xlink="http://www.w3.org/1999/xlink"
 xmlns:xodm="http://www.corel.com/coreldraw/odm/2003">
 <defs>
  <style type="text/css">
   <![CDATA[
    .fil0 {fill:#8D8E8E}
   ]]>
  </style>
 </defs>
 <g id="Camada_x0020_1">
  <metadata id="CorelCorpID_0Corel-Layer"/>
  <g id="_2114217876240">
   <path class="fil0" d="M-0 104.7c0,81.21 28.11,84.83 89.44,146.14 131.25,131.26 666.55,692.12 730.74,735.11 -27.75,41.46 -544.32,548.69 -626.04,630.4 -84.06,84.07 -194.14,157.56 -194.14,259.59 0,66.97 61.07,104.69 139.61,104.69 49.2,0 102.99,-72.46 133.06,-102.52l732.87 -733c101.61,-115.39 102.58,-89.11 102.58,-185.35 0,-45.73 -546.72,-564.23 -648.03,-669.49 -23.92,-24.85 -30.82,-40.27 -56.41,-65.74 -47.8,-47.55 -202.77,-224.55 -264.07,-224.55 -51.27,0 -65.83,0.59 -98.74,32.14 -20.91,20.05 -40.87,36.2 -40.87,72.56z"/>
   <path class="fil0" d="M811.46 122.15c0,62.29 143.95,183.21 189.78,229.04 83.17,83.17 611.07,601.58 639.13,643.49 -67.34,45.09 -394.74,405.56 -478.6,472.47 -66.29,52.87 -201.72,194.98 -269.6,262.64 -36.3,36.17 -80.7,69.14 -80.7,137.43 0,64.1 53.41,113.42 139.6,113.42 52.32,0 215.56,-185.02 259.59,-229.03l610.77 -610.77c40.16,-40.16 99.24,-74.64 102.78,-148.43 3.98,-82.86 -132.52,-191.06 -211.84,-270.39l-492.99 -492.98c-42.85,-42.85 -79.3,-79.31 -122.15,-122.16 -66.32,-66.32 -88.25,-106.88 -172.33,-106.88 -58.3,0 -113.42,62.05 -113.42,122.15z"/>
  </g>
 </g>
</svg>
