<?xml version="1.0" encoding="UTF-8"?>
<!DOCTYPE svg PUBLIC "-//W3C//DTD SVG 1.1//EN" "http://www.w3.org/Graphics/SVG/1.1/DTD/svg11.dtd">
<!-- Creator: CorelDRAW 2020 (64 Bit) -->
<svg xmlns="http://www.w3.org/2000/svg" xml:space="preserve" width="10.7526mm" height="19.2191mm" version="1.1" style="shape-rendering:geometricPrecision; text-rendering:geometricPrecision; image-rendering:optimizeQuality; fill-rule:evenodd; clip-rule:evenodd"
viewBox="0 0 638.12 1140.57"
 xmlns:xlink="http://www.w3.org/1999/xlink"
 xmlns:xodm="http://www.corel.com/coreldraw/odm/2003">
 <defs>
  <style type="text/css">
   <![CDATA[
    .fil0 {fill:#8D8E8E}
   ]]>
  </style>
 </defs>
 <g id="Camada_x0020_1">
  <metadata id="CorelCorpID_0Corel-Layer"/>
  <path class="fil0" d="M-0 60.3c0,46.76 16.19,48.85 51.51,84.16 75.58,75.59 383.84,398.57 420.8,423.32 -15.98,23.87 -313.45,315.97 -360.51,363.02 -48.41,48.41 -111.8,90.73 -111.8,149.49 0,38.56 35.17,60.29 80.4,60.29 28.33,0 59.31,-41.73 76.62,-59.04l422.03 -422.1c58.51,-66.45 59.07,-51.32 59.07,-106.73 0,-26.33 -314.83,-324.92 -373.17,-385.53 -13.77,-14.31 -17.75,-23.19 -32.49,-37.86 -27.52,-27.38 -116.77,-129.31 -152.07,-129.31 -29.52,0 -37.91,0.34 -56.86,18.51 -12.04,11.55 -23.54,20.85 -23.54,41.79z"/>
 </g>
</svg>
