<?xml version="1.0" encoding="UTF-8"?>
<!DOCTYPE svg PUBLIC "-//W3C//DTD SVG 1.1//EN" "http://www.w3.org/Graphics/SVG/1.1/DTD/svg11.dtd">
<!-- Creator: CorelDRAW 2020 (64 Bit) -->
<svg xmlns="http://www.w3.org/2000/svg" xml:space="preserve" width="49.4775mm" height="49.9395mm" version="1.1" style="shape-rendering:geometricPrecision; text-rendering:geometricPrecision; image-rendering:optimizeQuality; fill-rule:evenodd; clip-rule:evenodd"
viewBox="0 0 5660.06 5712.92"
 xmlns:xlink="http://www.w3.org/1999/xlink"
 xmlns:xodm="http://www.corel.com/coreldraw/odm/2003">
 <defs>
  <style type="text/css">
   <![CDATA[
    .fil0 {fill:white}
   ]]>
  </style>
 </defs>
 <g id="Camada_x0020_1">
  <metadata id="CorelCorpID_0Corel-Layer"/>
  <g id="_2114213323840">
   <path class="fil0" d="M3246.56 5335.44c0,-1074.51 -162.89,-931.2 906.02,-931.2 -78.09,116.6 -829.06,879.65 -906.02,931.2zm-1459.68 -3900.93c0,-759.48 629.16,-685.5 629.16,-125.82 0,842.59 -324.96,537.13 196.25,1313.79 61.41,91.49 107.25,165.42 173.92,253.91 63.71,84.5 129.54,163.69 183.53,244.34 351.98,0 981.52,-170.38 981.52,377.47 0,286.85 -423.82,440.59 -809.41,155.08l-247.61 -205.4c-100.29,23.37 -1131.34,383.76 -1216.65,444.4 -200.34,142.44 -296.8,939.79 -771.55,939.79 -227.12,0 -302.01,-189.8 -302.01,-377.51 0,-334.92 399.15,-544 687.9,-696.25 183.29,-96.67 152.14,-48.18 243.67,-234.57 93.63,-190.65 477.8,-1205.54 477.8,-1384.53 0,-52.94 -112.64,-239.59 -141.17,-311.85 -36.21,-91.83 -85.34,-279.54 -85.34,-392.85zm-1786.88 -755l0 4353.92c0,321.29 336.37,679.48 654.34,679.48l2416.07 0c81.53,0 1014.61,-970.98 1139.31,-1100.54 49.28,-51.19 345.52,-364.17 345.52,-409.47l0 -1031.85c-739.62,0 -1283.51,-567.81 -1283.51,-1283.53 0,-677.11 599.83,-1258.36 1283.51,-1258.36 -46.19,-198.26 -117.06,-321.09 -253.53,-451.1 -95.66,-91.14 -260.25,-178.06 -400.82,-178.06l-3221.38 0c-333.99,0 -679.52,345.52 -679.52,679.52z"/>
   <path class="fil0" d="M4454.59 2189.53c0,-167.77 0.03,-335.57 0,-503.33 -0.06,-147.62 -51.39,-427.84 100.66,-427.84 149.28,0 100.79,257.93 100.68,402.67 -0.13,176.18 0,352.36 0,528.51 54.36,-36.39 352.33,-397.55 352.33,-75.5 0,78.57 -357.51,405.93 -427.83,453.01 -121.37,-28.27 -364.77,-284.41 -448.5,-384.26 -82.46,-98.3 -47.52,-214.38 85.08,-185.84 71.88,15.48 167.65,145.76 237.59,192.59zm-1006.7 -352.33c0,281.76 50.06,504.94 211.47,719.73 28.08,37.34 64.38,78.99 92.86,108.47l25.29 25.03c889.77,852.93 2230.11,-136.5 1799.48,-1195.46 -59.1,-145.35 -136.05,-259.38 -240.34,-363.66 -736.26,-736.27 -1888.77,-123.54 -1888.77,705.89z"/>
   <path class="fil0" d="M1862.38 3498.21l805.34 -276.83c-34.83,-130.53 -374.44,-475.42 -427.83,-704.66l-50.32 0c-18.07,216.84 -293.45,836.64 -327.19,981.49z"/>
   <path class="fil0" d="M880.84 4479.74c0,41.19 15.08,75.5 50.36,75.5 114.89,0 227.16,-308.83 276.83,-402.67 -88.67,23.67 -327.19,161.29 -327.19,327.16z"/>
   <path class="fil0" d="M3498.24 3523.38l176.15 0c-3.83,-172.7 -95.33,-151 -402.65,-151 27.38,37.36 170.66,151 226.51,151z"/>
   <path class="fil0" d="M2063.71 1384.19c0,161.91 22.56,134.94 25.18,251.68l50.32 0c0,-121.58 25.18,-148.64 25.18,-226.52 0,-111.73 -25.18,-98.6 -25.18,-226.51 -59.93,43.91 -75.5,96.85 -75.5,201.34z"/>
  </g>
 </g>
</svg>
