<?xml version="1.0" encoding="UTF-8"?>
<!DOCTYPE svg PUBLIC "-//W3C//DTD SVG 1.1//EN" "http://www.w3.org/Graphics/SVG/1.1/DTD/svg11.dtd">
<!-- Creator: CorelDRAW 2020 (64 Bit) -->
<svg xmlns="http://www.w3.org/2000/svg" xml:space="preserve" width="42.7172mm" height="47.5377mm" version="1.1"
    style="shape-rendering:geometricPrecision; text-rendering:geometricPrecision; image-rendering:optimizeQuality; fill-rule:evenodd; clip-rule:evenodd"
    viewBox="0 0 4880.65 5431.42" xmlns:xlink="http://www.w3.org/1999/xlink"
    xmlns:xodm="http://www.corel.com/coreldraw/odm/2003">
    <defs>
        <style type="text/css">
            <![CDATA[
            .fil0 {
                fill: white
            }
            ]]>
        </style>
    </defs>
    <g id="Camada_x0020_1">
        <metadata id="CorelCorpID_0Corel-Layer" />
        <g id="_2148814650400">
            <path class="fil0"
                d="M16.12 910.58c0,599.32 1643.81,804.74 2177.55,804.74 798.43,0 1866.62,-51.44 2431.86,-455.8 340.81,-243.77 268.35,-550.21 20.36,-741.95 -247.48,-191.33 -514.46,-282.24 -861.53,-369.27 -661.3,-165.81 -1445.58,-185.49 -2186.81,-94.21 -552.24,67.99 -1581.44,305.62 -1581.44,856.49z" />
            <path class="fil0"
                d="M2075.33 5431.41c808.91,0 1883.9,5.3 2543.33,-486.33 346.07,-258.01 249.65,-644.19 249.65,-1194.2 -99.1,23.1 -104.36,55.24 -211.37,119.99 -71.65,43.36 -141.32,86.25 -231.14,123.9 -1013.83,425.17 -2959.67,450.66 -3968.19,1.04 -312.89,-139.51 -230.02,-126.97 -441.48,-268.58 0,171.04 -21.22,795.6 9.89,913.22 149.54,565.67 1492.99,790.96 2049.31,790.96z" />
            <path class="fil0"
                d="M2193.67 4129.6c705.16,0 1480.92,-20.77 2089.91,-277.03 199.69,-84.05 460.96,-209.9 544.47,-402.29 80.73,-186.05 40.25,-651.04 40.25,-906.53 -140.64,11.71 -1.59,-6.12 -211.29,120.07 -209.64,126.17 -511.37,239.92 -768.9,296.25 -882.43,192.98 -2017.14,220.16 -2892.24,0.42 -565.84,-142.1 -582.57,-174.42 -979.75,-440.4 0,816.88 -165.53,1035.55 564.35,1329.2 397.41,159.89 1049.08,280.31 1613.2,280.31z" />
            <path class="fil0"
                d="M2193.67 2922.46c760.46,0 1416.25,-13.14 2086.39,-280.56 731.11,-291.75 588.24,-504.32 588.24,-1305.29 -115.2,9.59 -31.98,-12.52 -113.91,51.77 -767.18,601.99 -2790.21,608.21 -3758.52,364.98 -566,-142.19 -582.41,-174.34 -979.75,-440.4 0,820.65 -165.19,1034.2 564.32,1329.2 391.84,158.46 1055.14,280.31 1613.23,280.31z" />
        </g>
    </g>
</svg>